# File created by Blade
# Date/Time:  Tue Sep 30 19:15:20 2014
#---------------------------------------------------------
:version 1.10
:name HOM
:units
  mass 1.0
  length 1.000000
  angle deg
:documentation
     Acclaim Skeleton File
:root
   axis xyz
   order TX TY TZ RX RY RZ
   position 0.000000 0.000000 0.000000
   orientation 0 0 0
:bonedata
   begin
      id 1
      name Spine_dum
      direction 0.000000 1.000000 0.000000
      length 7.508935
      axis 0.0 0.0 0.0 xyz
   end
   begin
      id 2
      name LeftUpLeg_dum
      direction 1.000000 0.000000 0.000000
      length 3.000554
      axis 0.0 0.0 0.0 xyz
   end
   begin
      id 3
      name RightUpLeg_dum
      direction -1.000000 0.000000 0.000000
      length 3.000554
      axis 0.0 0.0 0.0 xyz
   end
   begin
      id 4
      name Spine
      direction 0.000000 1.000000 0.000000
      length 0.000000
      axis 0.0 0.0 0.0 xyz
      dof rx ry rz
   end
   begin
      id 5
      name Spine_dum1
      direction 0.000000 1.000000 0.000000
      length 13.861122
      axis 0.0 0.0 0.0 xyz
   end
   begin
      id 6
      name Spine_dum2
      direction 0.000000 1.000000 0.000000
      length 8.204763
      axis 0.0 0.0 0.0 xyz
   end
   begin
      id 7
      name Spine_dum3
      direction 0.000000 1.000000 0.000000
      length 8.204763
      axis 0.0 0.0 0.0 xyz
   end
   begin
      id 8
      name Head
      direction 0.000000 1.000000 0.000000
      length 4.527541
      axis 0.0 0.0 0.0 xyz
      dof rx ry rz
   end
   begin
      id 9
      name LeftShoulder
      direction 1.000000 0.000000 0.000000
      length 6.635947
      axis 0.0 0.0 0.0 xyz
      dof rx ry rz
   end
   begin
      id 10
      name LeftArm
      direction 1.000000 0.000000 0.000000
      length 10.274200
      axis 0.0 0.0 0.0 xyz
      dof rx ry rz
   end
   begin
      id 11
      name LeftForeArm
      direction 1.000000 0.000000 0.000000
      length 8.522133
      axis 0.0 0.0 0.0 xyz
      dof ry rz rx
   end
   begin
      id 12
      name LeftHand
      direction 0.000000 0.000000 0.000000
      length 0.000000
      axis 0.0 0.0 0.0 xyz
      dof rx ry rz
   end
   begin
      id 13
      name LeftHand_dum1
      direction 0.000000 0.000000 0.000000
      length 0.000000
      axis 0.0 0.0 0.0 xyz
   end
   begin
      id 14
      name LeftHand_dum2
      direction 1.000000 0.000000 0.000000
      length 3.936992
      axis 0.0 0.0 0.0 xyz
   end
   begin
      id 15
      name LeftHandThumb1
      direction 0.000000 0.000000 1.000000
      length 3.936992
      axis 0.0 0.0 0.0 xyz
      dof rx rz ry
   end
   begin
      id 16
      name RightShoulder
      direction -1.000000 0.000000 0.000000
      length 6.635947
      axis 0.0 0.0 0.0 xyz
      dof rx ry rz
   end
   begin
      id 17
      name RightArm
      direction -1.000000 0.000000 0.000000
      length 10.274200
      axis 0.0 0.0 0.0 xyz
      dof rx ry rz
   end
   begin
      id 18
      name RightForeArm
      direction -1.000000 0.000000 0.000000
      length 8.522133
      axis 0.0 0.0 0.0 xyz
      dof ry rz rx
   end
   begin
      id 19
      name RightHand
      direction 0.000000 0.000000 0.000000
      length 0.000000
      axis 0.0 0.0 0.0 xyz
      dof rx ry rz
   end
   begin
      id 20
      name RightHand_dum1
      direction 0.000000 0.000000 0.000000
      length 0.000000
      axis 0.0 0.0 0.0 xyz
   end
   begin
      id 21
      name RightHand_dum2
      direction -1.000000 0.000000 0.000000
      length 3.936992
      axis 0.0 0.0 0.0 xyz
   end
   begin
      id 22
      name RightHandThumb1
      direction 0.000000 0.000000 1.000000
      length 3.936992
      axis 0.0 0.0 0.0 xyz
      dof rx rz ry
   end
   begin
      id 23
      name LeftUpLeg
      direction 0.000000 -1.000000 0.000000
      length 16.490817
      axis 0.0 0.0 0.0 xyz
      dof rx ry rz
   end
   begin
      id 24
      name LeftLeg
      direction 0.000000 -1.000000 0.000000
      length 14.556551
      axis 0.0 0.0 0.0 xyz
      dof rx ry rz
   end
   begin
      id 25
      name LeftFoot
      direction 0.000000 -0.258818 0.965926
      length 4.831105
      axis 0.0 0.0 0.0 xyz
      dof rx ry rz
   end
   begin
      id 26
      name LeftToeBase
      direction 0.000000 0.000000 1.000000
      length 2.952744
      axis 0.0 0.0 0.0 xyz
      dof rx ry rz
   end
   begin
      id 27
      name RightUpLeg
      direction 0.000000 -1.000000 0.000000
      length 16.490817
      axis 0.0 0.0 0.0 xyz
      dof rx ry rz
   end
   begin
      id 28
      name RightLeg
      direction 0.000000 -1.000000 0.000000
      length 14.556551
      axis 0.0 0.0 0.0 xyz
      dof rx ry rz
   end
   begin
      id 29
      name RightFoot
      direction 0.000000 -0.258818 0.965926
      length 4.831105
      axis 0.0 0.0 0.0 xyz
      dof rx ry rz
   end
   begin
      id 30
      name RightToeBase
      direction 0.000000 0.000000 1.000000
      length 2.952744
      axis 0.0 0.0 0.0 xyz
      dof rx ry rz
   end
:hierarchy
   begin
      root Spine_dum LeftUpLeg_dum RightUpLeg_dum
      Spine_dum Spine
      LeftUpLeg_dum LeftUpLeg
      RightUpLeg_dum RightUpLeg
      Spine Spine_dum1 Spine_dum2 Spine_dum3
      Spine_dum1 Head
      Spine_dum2 LeftShoulder
      Spine_dum3 RightShoulder
      LeftShoulder LeftArm
      LeftArm LeftForeArm
      LeftForeArm LeftHand
      LeftHand LeftHand_dum1 LeftHand_dum2
      LeftHand_dum1 LeftHandThumb1
      RightShoulder RightArm
      RightArm RightForeArm
      RightForeArm RightHand
      RightHand RightHand_dum1 RightHand_dum2
      RightHand_dum1 RightHandThumb1
      LeftUpLeg LeftLeg
      LeftLeg LeftFoot
      LeftFoot LeftToeBase
      RightUpLeg RightLeg
      RightLeg RightFoot
      RightFoot RightToeBase
   end

# File created by Blade
# Date/Time:  Tue Sep 30 19:15:05 2014
# Frame Rate: 120.000 fps
#------------------------------------------------------
:FULLY-SPECIFIED
:DEGREES
138
root -1.902496 33.117533 -2.972794 2.798908 4.332324 -7.817997
Spine -4.771867 4.369821 7.078311
Head -7.956028 -8.362823 12.396575
LeftShoulder 17.235303 10.523835 19.330866
LeftArm -19.517397 -17.878771 -68.590154
LeftForeArm -102.737869 0.186299 -0.042114
LeftHand -0.000032 29.441931 13.901739
LeftHandThumb1 30.357831 13.997178 22.438692
RightShoulder -10.659765 -23.629356 -17.056751
RightArm 17.156832 -14.590270 78.715198
RightForeArm 21.428615 -10.490884 24.887949
RightHand 0.000019 -6.947787 10.234704
RightHandThumb1 30.482666 -12.916435 -20.793814
LeftUpLeg -4.359066 6.101945 1.268337
LeftLeg 7.009000 -0.000000 0.000000
LeftFoot -12.184212 4.712919 -10.806466
LeftToeBase 8.486500 -0.000000 -0.000000
RightUpLeg -102.619303 -10.136144 8.846669
RightLeg 108.829300 -0.000000 -0.000000
RightFoot 7.780091 -9.274436 1.539876
RightToeBase -2.603700 -0.000000 0.000000
139
root -1.891596 33.114134 -2.972294 2.800853 4.292864 -7.794181
Spine -4.826758 4.367760 7.047787
Head -7.906218 -8.398714 12.367930
LeftShoulder 17.249720 10.490924 19.294237
LeftArm -19.369382 -17.956440 -68.541605
LeftForeArm -102.802714 0.242615 -0.055133
LeftHand -0.000061 29.468415 13.804530
LeftHandThumb1 30.357831 13.997178 22.438692
RightShoulder -10.658195 -23.628298 -17.031596
RightArm 17.258036 -14.557378 78.800208
RightForeArm 21.477228 -10.516169 24.885493
RightHand 0.000005 -6.993540 10.207908
RightHandThumb1 30.482666 -12.916435 -20.793814
LeftUpLeg -4.371885 6.090367 1.224914
LeftLeg 7.048200 -0.000000 0.000000
LeftFoot -12.200053 4.679983 -10.721885
LeftToeBase 8.448100 -0.000000 -0.000000
RightUpLeg -102.614381 -10.096051 8.881414
RightLeg 108.763100 -0.000000 -0.000000
RightFoot 7.934926 -9.311455 1.564122
RightToeBase -2.667400 -0.000000 0.000000
140
root -1.880696 33.111433 -2.971694 2.798858 4.259366 -7.771076
Spine -4.874314 4.328490 7.016508
Head -7.848746 -8.363640 12.360322
LeftShoulder 17.529243 10.602849 19.248458
LeftArm -19.214854 -18.406248 -68.432432
LeftForeArm -102.770258 0.363189 -0.082316
LeftHand -0.000088 29.467115 13.831015
LeftHandThumb1 30.357831 13.997178 22.438692
RightShoulder -10.656215 -23.608962 -16.978305
RightArm 17.377048 -14.502731 78.853016
RightForeArm 21.529286 -10.533442 24.862720
RightHand -0.000014 -6.914130 10.229663
RightHandThumb1 30.482666 -12.916435 -20.793814
LeftUpLeg -4.389673 6.071917 1.188106
LeftLeg 7.120600 -0.000000 0.000000
LeftFoot -12.225392 4.680472 -10.704529
LeftToeBase 8.477500 0.000000 0.000000
RightUpLeg -102.573211 -10.075360 8.927798
RightLeg 108.668297 -0.000000 0.000000
RightFoot 8.118952 -9.362345 1.653405
RightToeBase -2.647800 -0.000000 0.000000
141
root -1.867496 33.107634 -2.972394 2.804670 4.212178 -7.728656
Spine -4.919920 4.302830 6.975108
Head -7.806167 -8.314032 12.323871
LeftShoulder 17.643560 10.606538 19.230217
LeftArm -19.100295 -18.588858 -68.414518
LeftForeArm -102.797629 0.463298 -0.105237
LeftHand -0.000012 29.478787 13.975543
LeftHandThumb1 30.357831 13.997178 22.438692
RightShoulder -10.682586 -23.580830 -16.952485
RightArm 17.457839 -14.494031 78.932372
RightForeArm 21.585870 -10.534425 24.801628
RightHand -0.000001 -6.908824 10.135221
RightHandThumb1 30.482666 -12.916435 -20.793814
LeftUpLeg -4.411240 6.056173 1.122460
LeftLeg 7.172700 -0.000000 -0.000000
LeftFoot -12.242949 4.686635 -10.600688
LeftToeBase 8.484600 -0.000000 -0.000000
RightUpLeg -102.507502 -10.049380 8.963945
RightLeg 108.556198 -0.000000 0.000000
RightFoot 8.294176 -9.403499 1.648647
RightToeBase -2.610400 -0.000000 0.000000
142
root -1.855196 33.103434 -2.972794 2.801473 4.150974 -7.690828
Spine -4.950827 4.297133 6.940601
Head -7.762222 -8.260313 12.276135
LeftShoulder 17.672270 10.569732 19.200685
LeftArm -19.013157 -18.664535 -68.406607
LeftForeArm -102.851204 0.502880 -0.114723
LeftHand 0.000017 29.489355 13.949418
LeftHandThumb1 30.357831 13.997178 22.438692
RightShoulder -10.711926 -23.573200 -16.939787
RightArm 17.520804 -14.491548 79.027781
RightForeArm 21.637490 -10.567402 24.811643
RightHand -0.000037 -6.947510 10.068767
RightHandThumb1 30.482666 -12.916435 -20.793814
LeftUpLeg -4.425919 6.070569 1.057624
LeftLeg 7.243700 0.000000 0.000000
LeftFoot -12.287826 4.729707 -10.594197
LeftToeBase 8.415700 -0.000000 -0.000000
RightUpLeg -102.404026 -10.004799 9.017770
RightLeg 108.414803 -0.000000 0.000000
RightFoot 8.499197 -9.444750 1.597309
RightToeBase -2.505900 -0.000000 0.000000
143
root -1.842596 33.099635 -2.971194 2.785703 4.070166 -7.632313
Spine -4.961451 4.291807 6.869956
Head -7.722165 -8.199114 12.269089
LeftShoulder 17.628300 10.532877 19.181744
LeftArm -18.910305 -18.659337 -68.408321
LeftForeArm -102.898387 0.628336 -0.143886
LeftHand -0.000029 29.534236 14.049910
LeftHandThumb1 30.357831 13.997178 22.438692
RightShoulder -10.734832 -23.557263 -16.896249
RightArm 17.548021 -14.479096 79.107952
RightForeArm 21.714191 -10.592327 24.777374
RightHand -0.000034 -6.959747 10.145573
RightHandThumb1 30.482666 -12.916435 -20.793814
LeftUpLeg -4.410045 6.106398 0.986097
LeftLeg 7.280800 -0.000000 0.000000
LeftFoot -12.259724 4.647867 -10.454103
LeftToeBase 8.393800 -0.000000 -0.000000
RightUpLeg -102.250531 -9.946477 9.051425
RightLeg 108.245796 0.000000 0.000000
RightFoot 8.710463 -9.523433 1.629062
RightToeBase -2.418000 -0.000000 0.000000
144
root -1.828796 33.095835 -2.971394 2.767001 4.014766 -7.578670
Spine -4.973454 4.264300 6.803732
Head -7.659730 -8.148516 12.296011
LeftShoulder 17.549714 10.495120 19.180136
LeftArm -18.802796 -18.642673 -68.482502
LeftForeArm -102.939207 0.708055 -0.162672
LeftHand 0.000030 29.568734 14.025481
LeftHandThumb1 30.357831 13.997178 22.438692
RightShoulder -10.706625 -23.535688 -16.845884
RightArm 17.605231 -14.418036 79.170724
RightForeArm 21.782817 -10.623003 24.763826
RightHand -0.000034 -6.933735 10.140958
RightHandThumb1 30.482666 -12.916435 -20.793814
LeftUpLeg -4.405674 6.092079 0.913168
LeftLeg 7.344200 -0.000000 0.000000
LeftFoot -12.235479 4.696841 -10.358275
LeftToeBase 8.237700 -0.000000 -0.000000
RightUpLeg -102.081195 -9.934541 9.116917
RightLeg 108.052002 0.000000 0.000000
RightFoot 8.982472 -9.628863 1.591810
RightToeBase -2.547900 -0.000000 -0.000000
145
root -1.812396 33.090033 -2.972894 2.765591 3.965183 -7.500095
Spine -4.990963 4.216013 6.739543
Head -7.626113 -8.096665 12.227663
LeftShoulder 17.548279 10.509029 19.160318
LeftArm -18.711653 -18.709352 -68.521000
LeftForeArm -102.947170 0.763876 -0.175607
LeftHand 0.000012 29.572550 14.270514
LeftHandThumb1 30.357831 13.997178 22.438692
RightShoulder -10.723999 -23.503849 -16.840952
RightArm 17.674261 -14.421677 79.255976
RightForeArm 21.877332 -10.652239 24.718918
RightHand 0.000043 -6.905091 10.121986
RightHandThumb1 30.482666 -12.916435 -20.793814
LeftUpLeg -4.422932 6.100497 0.804143
LeftLeg 7.402600 -0.000000 -0.000000
LeftFoot -12.235609 4.642095 -10.226414
LeftToeBase 8.257800 -0.000000 -0.000000
RightUpLeg -101.898666 -9.928575 9.135112
RightLeg 107.838997 -0.000000 -0.000000
RightFoot 9.166443 -9.735416 1.752987
RightToeBase -2.197400 -0.000000 0.000000
146
root -1.797196 33.084532 -2.973294 2.751542 3.921152 -7.429361
Spine -5.009695 4.165740 6.669166
Head -7.550161 -8.070847 12.211420
LeftShoulder 17.537175 10.495633 19.156932
LeftArm -18.635941 -18.753765 -68.576925
LeftForeArm -102.945873 0.826254 -0.189926
LeftHand -0.000020 29.523286 14.187139
LeftHandThumb1 30.357831 13.997178 22.438692
RightShoulder -10.737684 -23.467881 -16.813369
RightArm 17.698411 -14.433902 79.327215
RightForeArm 21.971412 -10.701311 24.714616
RightHand -0.000016 -6.902402 10.115593
RightHandThumb1 30.482666 -12.916435 -20.793814
LeftUpLeg -4.423006 6.116687 0.710877
LeftLeg 7.454300 -0.000000 -0.000000
LeftFoot -12.232292 4.621797 -10.122865
LeftToeBase 8.214100 -0.000000 -0.000000
RightUpLeg -101.688129 -9.935820 9.138086
RightLeg 107.617897 -0.000000 -0.000000
RightFoot 9.372745 -9.905008 1.927341
RightToeBase -2.297000 -0.000000 0.000000
147
root -1.786896 33.079134 -2.973794 2.740851 3.882631 -7.375684
Spine -5.024505 4.113885 6.594985
Head -7.493051 -8.089031 12.207546
LeftShoulder 17.453746 10.490820 19.178296
LeftArm -18.549670 -18.743606 -68.663629
LeftForeArm -102.929853 0.961492 -0.220727
LeftHand -0.000040 29.424280 14.111851
LeftHandThumb1 30.357831 13.997178 22.438692
RightShoulder -10.746315 -23.450333 -16.757072
RightArm 17.719375 -14.433545 79.383099
RightForeArm 22.077821 -10.755192 24.706374
RightHand 0.000045 -6.944544 10.100004
RightHandThumb1 30.482666 -12.916435 -20.793814
LeftUpLeg -4.426326 6.140226 0.643625
LeftLeg 7.507500 -0.000000 0.000000
LeftFoot -12.239861 4.586862 -10.079270
LeftToeBase 8.070000 -0.000000 -0.000000
RightUpLeg -101.455727 -9.945282 9.202660
RightLeg 107.373802 -0.000000 -0.000000
RightFoot 9.588400 -10.024872 2.058953
RightToeBase -2.527200 -0.000000 0.000000
148
root -1.777996 33.074934 -2.973594 2.732386 3.838809 -7.342144
Spine -5.052580 4.075536 6.546808
Head -7.407435 -8.094464 12.221506
LeftShoulder 17.412508 10.484834 19.187658
LeftArm -18.507600 -18.797137 -68.791398
LeftForeArm -102.901424 1.077891 -0.246882
LeftHand 0.000053 29.458716 14.146337
LeftHandThumb1 30.357831 13.997178 22.438692
RightShoulder -10.737194 -23.449849 -16.713691
RightArm 17.783000 -14.412612 79.433538
RightForeArm 22.156577 -10.765477 24.641250
RightHand 0.000008 -6.937570 10.059733
RightHandThumb1 30.482666 -12.916435 -20.793814
LeftUpLeg -4.426149 6.183958 0.601687
LeftLeg 7.549300 -0.000000 -0.000000
LeftFoot -12.249941 4.512926 -10.046272
LeftToeBase 8.047400 -0.000000 -0.000000
RightUpLeg -101.202564 -9.941573 9.289831
RightLeg 107.112801 -0.000000 -0.000000
RightFoot 9.830161 -10.006664 2.068022
RightToeBase -2.179900 -0.000000 -0.000000
149
root -1.763997 33.069235 -2.971594 2.717512 3.791660 -7.265757
Spine -5.073130 4.045594 6.455380
Head -7.327351 -8.108080 12.222172
LeftShoulder 17.337933 10.487944 19.193324
LeftArm -18.463981 -18.823465 -68.913811
LeftForeArm -102.865988 1.183237 -0.270237
LeftHand -0.000005 29.425685 14.076272
LeftHandThumb1 30.357831 13.997178 22.438692
RightShoulder -10.752032 -23.473808 -16.667804
RightArm 17.875650 -14.421363 79.471148
RightForeArm 22.233063 -10.812983 24.652854
RightHand -0.000016 -6.925376 10.021954
RightHandThumb1 30.482666 -12.916435 -20.793814
LeftUpLeg -4.403818 6.208416 0.498232
LeftLeg 7.580000 -0.000000 -0.000000
LeftFoot -12.284410 4.537742 -10.056931
LeftToeBase 8.090400 -0.000000 -0.000000
RightUpLeg -100.929892 -9.948213 9.283884
RightLeg 106.867203 -0.000000 -0.000000
RightFoot 9.991568 -10.022934 2.279571
RightToeBase -1.987000 -0.000000 0.000000
